<svg width="259" height="150" viewBox="0 0 259 150" fill="none" xmlns="http://www.w3.org/2000/svg">
<path d="M101.313 48.61C101.885 48.402 102.405 48.506 102.873 48.922C103.341 49.286 103.549 49.754 103.497 50.326C103.497 50.898 103.185 51.288 102.561 51.496C94.5015 54.408 86.2595 58.49 77.8355 63.742C78.0955 71.178 77.4975 78.016 76.0415 84.256C74.0135 92.94 70.7375 101.39 66.2135 109.606C61.7415 117.822 56.3595 125.388 50.0675 132.304C49.2875 133.136 48.5595 133.89 47.8835 134.566C47.2595 135.242 46.4795 136.048 45.5435 136.984C44.6075 137.972 43.6975 138.856 42.8135 139.636C41.9815 140.416 41.0195 141.248 39.9275 142.132C38.8875 143.016 37.8475 143.796 36.8075 144.472C35.8195 145.148 34.7535 145.824 33.6095 146.5C32.5175 147.176 31.3995 147.722 30.2555 148.138C29.1635 148.554 28.0455 148.892 26.9015 149.152C25.8095 149.464 24.6915 149.594 23.5475 149.542C22.4035 149.542 21.2855 149.412 20.1935 149.152C17.6455 148.476 15.6435 147.098 14.1875 145.018C12.7315 142.938 11.8995 140.546 11.6915 137.842C11.5355 135.19 11.6395 132.564 12.0035 129.964C12.4195 127.364 13.0695 125.024 13.9535 122.944C15.6175 118.94 17.7495 114.962 20.3495 111.01C23.0015 107.11 26.0175 103.34 29.3975 99.7C32.8295 96.06 36.0535 92.836 39.0695 90.028C42.0855 87.22 45.5695 84.152 49.5215 80.824C58.2055 73.492 66.4735 67.304 74.3255 62.26C73.9615 55.396 72.8175 47.336 70.8935 38.08C70.8935 37.924 70.7635 37.222 70.5035 35.974C70.2435 34.674 70.0355 33.712 69.8795 33.088C69.7235 32.464 69.4895 31.45 69.1775 30.046C68.8655 28.642 68.5535 27.498 68.2415 26.614C67.9295 25.73 67.5395 24.664 67.0715 23.416C66.6555 22.168 66.1875 21.154 65.6675 20.374C65.1475 19.594 64.5755 18.814 63.9515 18.034C63.3795 17.202 62.7295 16.578 62.0015 16.162C61.2735 15.694 60.5195 15.434 59.7395 15.382C59.1155 15.278 58.4915 15.356 57.8675 15.616C57.2435 15.824 56.6195 16.214 55.9955 16.786C55.4235 17.358 54.9035 17.904 54.4355 18.424C54.0195 18.944 53.5255 19.672 52.9535 20.608C52.4335 21.492 52.0435 22.168 51.7835 22.636C51.5235 23.104 51.1595 23.832 50.6915 24.82C50.2235 25.756 49.9635 26.276 49.9115 26.38C48.0395 30.02 45.1535 36.39 41.2535 45.49C37.4055 54.538 34.1555 61.376 31.5035 66.004C30.5155 67.824 29.5535 69.462 28.6175 70.918C27.7335 72.322 26.5115 74.012 24.9515 75.988C23.3915 77.912 21.8575 79.472 20.3495 80.668C18.8415 81.864 17.0995 82.8 15.1235 83.476C13.1475 84.1 11.1975 84.178 9.27346 83.71C2.25346 81.994 -0.736537 72.712 0.303463 55.864C0.927463 45.88 3.16346 36.156 7.01146 26.692C10.9115 17.228 16.1635 8.70001 22.7675 1.10801C23.4435 0.328008 24.2235 0.250008 25.1075 0.874006C25.8355 1.55001 25.9135 2.22601 25.3415 2.90201C21.4415 7.42601 17.8795 12.522 14.6555 18.19C11.4315 23.806 8.70146 29.89 6.46546 36.442C4.28146 42.942 3.03346 49.39 2.72146 55.786C2.40946 62.182 3.18946 68.37 5.06146 74.35C8.18146 83.346 13.6155 83.268 21.3635 74.116C25.8875 68.812 30.2035 61.948 34.3115 53.524C34.5715 53.056 34.7795 52.64 34.9355 52.276C35.9235 50.144 37.1715 47.076 38.6795 43.072C40.2395 39.016 41.5915 35.584 42.7355 32.776C43.8795 29.916 45.3875 26.822 47.2595 23.494C49.1835 20.166 51.2115 17.41 53.3435 15.226C55.1635 13.406 56.9575 12.444 58.7255 12.34C60.5455 12.184 62.1055 12.678 63.4055 13.822C64.7575 14.914 66.0315 16.448 67.2275 18.424C68.4755 20.4 69.4635 22.298 70.1915 24.118C70.9195 25.886 71.5175 27.654 71.9855 29.422C75.1575 40.342 77.0555 50.586 77.6795 60.154C85.7395 55.266 93.6175 51.418 101.313 48.61ZM70.5035 92.134C73.2595 84.126 74.5595 75.364 74.4035 65.848C65.5115 71.672 56.3075 78.822 46.7915 87.298C44.7115 89.17 43.2295 90.496 42.3455 91.276C41.4615 92.108 39.9015 93.564 37.6655 95.644C35.4295 97.724 33.7135 99.388 32.5175 100.636C31.3735 101.884 29.8135 103.6 27.8375 105.784C25.8615 108.02 24.3275 109.944 23.2355 111.556C22.1955 113.168 20.9735 115.066 19.5695 117.25C18.2175 119.486 17.2035 121.54 16.5275 123.412C15.9035 125.284 15.3835 127.286 14.9675 129.418C14.6035 131.602 14.5255 133.682 14.7335 135.658C14.9935 138.986 15.7995 141.482 17.1515 143.146C18.5555 144.862 20.1935 145.746 22.0655 145.798C23.9895 145.902 26.0955 145.538 28.3835 144.706C30.7235 143.874 32.8815 142.782 34.8575 141.43C36.8855 140.13 38.8095 138.7 40.6295 137.14C45.1015 133.292 49.2355 128.924 53.0315 124.036C56.8795 119.148 60.2595 114.026 63.1715 108.67C66.0835 103.314 68.5275 97.802 70.5035 92.134Z" fill="white"/>
<path d="M126.308 66.082C126.62 65.51 127.062 65.276 127.634 65.38C128.258 65.484 128.674 65.796 128.882 66.316C129.142 66.784 129.142 67.304 128.882 67.876C126.75 71.308 123.812 74.532 120.068 77.548C116.324 80.512 112.71 82.072 109.226 82.228C108.134 82.228 107.198 82.098 106.418 81.838C105.638 81.526 105.014 81.162 104.546 80.746C104.13 80.33 103.74 79.706 103.376 78.874C103.064 78.042 102.83 77.34 102.674 76.768C102.57 76.196 102.414 75.39 102.206 74.35C98.2023 81.942 94.5363 85.504 91.2083 85.036C89.8563 84.828 88.8943 84.022 88.3223 82.618C87.6983 81.162 87.4383 79.446 87.5423 77.47C87.6463 75.442 87.8543 73.648 88.1663 72.088C88.4263 70.476 88.7123 69.098 89.0243 67.954C89.2323 67.382 89.5963 67.07 90.1163 67.018C90.6883 66.914 91.1823 67.096 91.5983 67.564C92.0143 67.98 92.1443 68.5 91.9883 69.124C90.7923 73.18 90.4283 76.326 90.8963 78.562C91.2603 80.33 92.2743 80.85 93.9383 80.122C96.0183 79.186 98.4363 75.52 101.192 69.124C101.452 68.552 101.92 68.24 102.596 68.188C103.324 68.136 103.818 68.422 104.078 69.046C104.286 69.566 104.442 70.164 104.546 70.84C104.702 71.516 104.832 72.14 104.936 72.712C105.04 73.232 105.144 73.83 105.248 74.506C105.404 75.13 105.56 75.65 105.716 76.066C105.924 76.482 106.184 76.924 106.496 77.392C106.86 77.86 107.25 78.172 107.666 78.328C108.082 78.484 108.628 78.614 109.304 78.718C109.98 78.77 110.76 78.64 111.644 78.328C114.244 77.704 116.922 76.17 119.678 73.726C122.486 71.23 124.696 68.682 126.308 66.082Z" fill="white"/>
<path d="M188.374 67.642C188.79 67.174 189.31 67.018 189.934 67.174C190.558 67.278 190.974 67.564 191.182 68.032C191.39 68.5 191.312 68.968 190.948 69.436C183.044 78.016 175.53 82.8 168.406 83.788C165.286 84.204 162.738 83.788 160.762 82.54C160.294 82.228 159.8 81.786 159.28 81.214C158.76 80.642 158.318 80.122 157.954 79.654C157.59 79.134 157.174 78.588 156.706 78.016C156.238 77.444 155.796 77.028 155.38 76.768C154.964 76.456 154.444 76.248 153.82 76.144C153.248 75.988 152.65 76.092 152.026 76.456C151.35 76.768 150.648 77.34 149.92 78.172C149.244 78.952 148.62 79.732 148.048 80.512C147.528 81.24 146.956 81.916 146.332 82.54C145.76 83.112 145.084 83.346 144.304 83.242C143.524 83.086 142.692 82.514 141.808 81.526C141.444 81.162 141.054 80.59 140.638 79.81C140.274 79.03 139.936 78.276 139.624 77.548C139.364 76.768 139 75.988 138.532 75.208C138.116 74.376 137.7 73.752 137.284 73.336C136.868 72.92 136.322 72.66 135.646 72.556C134.97 72.4 134.216 72.634 133.384 73.258C132.24 73.986 130.81 75.754 129.094 78.562C127.43 81.318 126.234 83.06 125.506 83.788C124.986 84.308 124.414 84.386 123.79 84.022C123.166 83.606 122.88 83.06 122.932 82.384C123.556 75.832 124.934 69.358 127.066 62.962C127.274 62.39 127.664 62.078 128.236 62.026C128.808 61.922 129.276 62.104 129.64 62.572C130.056 62.988 130.16 63.508 129.952 64.132C128.704 67.98 127.716 72.036 126.988 76.3C127.768 75 128.444 73.96 129.016 73.18C129.588 72.348 130.264 71.49 131.044 70.606C131.876 69.67 132.708 69.02 133.54 68.656C134.424 68.292 135.308 68.214 136.192 68.422C136.4 68.474 136.608 68.552 136.816 68.656C137.076 68.76 137.31 68.864 137.518 68.968C137.726 69.072 137.934 69.228 138.142 69.436C138.35 69.644 138.506 69.826 138.61 69.982C138.766 70.086 138.948 70.294 139.156 70.606C139.364 70.866 139.52 71.074 139.624 71.23C139.728 71.334 139.884 71.568 140.092 71.932C140.3 72.244 140.43 72.452 140.482 72.556C140.534 72.66 140.664 72.894 140.872 73.258C141.08 73.57 141.184 73.752 141.184 73.804C141.548 74.428 141.964 75.182 142.432 76.066C142.9 76.95 143.186 77.548 143.29 77.86C143.394 78.12 143.628 78.406 143.992 78.718C144.408 78.978 144.642 79.108 144.694 79.108C144.798 79.056 145.084 78.874 145.552 78.562C146.072 78.198 146.488 77.834 146.8 77.47C147.164 77.054 147.762 76.404 148.594 75.52C149.738 74.22 150.726 73.31 151.558 72.79C152.442 72.27 153.378 72.14 154.366 72.4C155.354 72.608 156.446 73.284 157.642 74.428C158.006 74.792 158.656 75.598 159.592 76.846C160.58 78.094 161.386 78.952 162.01 79.42C163.154 80.2 164.402 80.642 165.754 80.746C167.158 80.85 168.38 80.746 169.42 80.434C170.46 80.122 171.708 79.654 173.164 79.03C178.416 76.794 183.486 72.998 188.374 67.642Z" fill="white"/>
<path d="M251.357 67.642C251.773 67.174 252.293 67.018 252.917 67.174C253.541 67.278 253.957 67.564 254.165 68.032C254.373 68.5 254.295 68.968 253.931 69.436C246.027 78.016 238.513 82.8 231.389 83.788C228.269 84.204 225.721 83.788 223.745 82.54C223.277 82.228 222.783 81.786 222.263 81.214C221.743 80.642 221.301 80.122 220.937 79.654C220.573 79.134 220.157 78.588 219.689 78.016C219.221 77.444 218.779 77.028 218.363 76.768C217.947 76.456 217.427 76.248 216.803 76.144C216.231 75.988 215.633 76.092 215.009 76.456C214.333 76.768 213.631 77.34 212.903 78.172C212.227 78.952 211.603 79.732 211.031 80.512C210.511 81.24 209.939 81.916 209.315 82.54C208.743 83.112 208.067 83.346 207.287 83.242C206.507 83.086 205.675 82.514 204.791 81.526C204.427 81.162 204.037 80.59 203.621 79.81C203.257 79.03 202.919 78.276 202.607 77.548C202.347 76.768 201.983 75.988 201.515 75.208C201.099 74.376 200.683 73.752 200.267 73.336C199.851 72.92 199.305 72.66 198.629 72.556C197.953 72.4 197.199 72.634 196.367 73.258C195.223 73.986 193.793 75.754 192.077 78.562C190.413 81.318 189.217 83.06 188.489 83.788C187.969 84.308 187.397 84.386 186.773 84.022C186.149 83.606 185.863 83.06 185.915 82.384C186.539 75.832 187.917 69.358 190.049 62.962C190.257 62.39 190.647 62.078 191.219 62.026C191.791 61.922 192.259 62.104 192.623 62.572C193.039 62.988 193.143 63.508 192.935 64.132C191.687 67.98 190.699 72.036 189.971 76.3C190.751 75 191.427 73.96 191.999 73.18C192.571 72.348 193.247 71.49 194.027 70.606C194.859 69.67 195.691 69.02 196.523 68.656C197.407 68.292 198.291 68.214 199.175 68.422C199.383 68.474 199.591 68.552 199.799 68.656C200.059 68.76 200.293 68.864 200.501 68.968C200.709 69.072 200.917 69.228 201.125 69.436C201.333 69.644 201.489 69.826 201.593 69.982C201.749 70.086 201.931 70.294 202.139 70.606C202.347 70.866 202.503 71.074 202.607 71.23C202.711 71.334 202.867 71.568 203.075 71.932C203.283 72.244 203.413 72.452 203.465 72.556C203.517 72.66 203.647 72.894 203.855 73.258C204.063 73.57 204.167 73.752 204.167 73.804C204.531 74.428 204.947 75.182 205.415 76.066C205.883 76.95 206.169 77.548 206.273 77.86C206.377 78.12 206.611 78.406 206.975 78.718C207.391 78.978 207.625 79.108 207.677 79.108C207.781 79.056 208.067 78.874 208.535 78.562C209.055 78.198 209.471 77.834 209.783 77.47C210.147 77.054 210.745 76.404 211.577 75.52C212.721 74.22 213.709 73.31 214.541 72.79C215.425 72.27 216.361 72.14 217.349 72.4C218.337 72.608 219.429 73.284 220.625 74.428C220.989 74.792 221.639 75.598 222.575 76.846C223.563 78.094 224.369 78.952 224.993 79.42C226.137 80.2 227.385 80.642 228.737 80.746C230.141 80.85 231.363 80.746 232.403 80.434C233.443 80.122 234.691 79.654 236.147 79.03C241.399 76.794 246.469 72.998 251.357 67.642Z" fill="white"/>
<path d="M252.876 65.068C253.136 64.496 253.552 64.184 254.124 64.132C254.696 64.08 255.164 64.262 255.528 64.678C255.944 65.094 256.048 65.614 255.84 66.238C253.188 72.894 251.914 79.654 252.018 86.518C252.018 87.402 251.576 87.844 250.692 87.844C249.756 87.844 249.184 87.428 248.976 86.596C248.924 86.44 248.898 86.284 248.898 86.128C248.794 79.108 250.12 72.088 252.876 65.068ZM258.102 56.098C258.466 56.982 258.206 57.684 257.322 58.204L251.784 61.48C251.42 61.688 251.03 61.714 250.614 61.558C250.198 61.35 249.912 61.064 249.756 60.7C249.392 59.868 249.652 59.166 250.536 58.594L256.074 55.318C256.438 55.11 256.828 55.11 257.244 55.318C257.66 55.474 257.946 55.734 258.102 56.098Z" fill="white"/>
</svg>

